<mxfile host="app.diagrams.net" modified="2023-03-27T18:04:08.080Z" agent="Mozilla/5.0 (X11; Ubuntu; Linux x86_64; rv:109.0) Gecko/20100101 Firefox/111.0" etag="tUPn5wv1CBoNHtTXjadF" version="21.1.1" type="google">
  <diagram id="zswZliid3HpIubpjJQuO" name="Page-1">
    <mxGraphModel grid="1" page="1" gridSize="10" guides="1" tooltips="1" connect="1" arrows="1" fold="1" pageScale="1" pageWidth="1100" pageHeight="850" math="0" shadow="0">
      <root>
        <mxCell id="0" />
        <mxCell id="1" parent="0" />
        <mxCell id="zT3ZHp9hSMFfmm2dRahb-92" style="edgeStyle=orthogonalEdgeStyle;rounded=0;orthogonalLoop=1;jettySize=auto;html=1;exitX=0.5;exitY=1;exitDx=0;exitDy=0;fontSize=11;fontColor=#000000;entryX=0.484;entryY=0;entryDx=0;entryDy=0;entryPerimeter=0;" edge="1" parent="1" source="zT3ZHp9hSMFfmm2dRahb-1" target="CGvsTR9XaRbPzgTNPZg9-33">
          <mxGeometry relative="1" as="geometry">
            <mxPoint x="170" y="140" as="targetPoint" />
          </mxGeometry>
        </mxCell>
        <mxCell id="zT3ZHp9hSMFfmm2dRahb-1" value="&lt;div style=&quot;font-size: 13px;&quot;&gt;&lt;font style=&quot;font-size: 13px;&quot;&gt;Summary &lt;br&gt;&lt;/font&gt;&lt;/div&gt;&lt;div style=&quot;font-size: 13px;&quot;&gt;&lt;font style=&quot;font-size: 13px;&quot;&gt;Table&lt;/font&gt;&lt;/div&gt;" style="whiteSpace=wrap;html=1;aspect=fixed;fontSize=9;fontColor=#000000;" vertex="1" parent="1">
          <mxGeometry x="280" y="20" width="80" height="80" as="geometry" />
        </mxCell>
        <mxCell id="zT3ZHp9hSMFfmm2dRahb-29" style="edgeStyle=orthogonalEdgeStyle;rounded=0;orthogonalLoop=1;jettySize=auto;html=1;exitX=0.5;exitY=1;exitDx=0;exitDy=0;entryX=0.5;entryY=0;entryDx=0;entryDy=0;fontSize=11;fontColor=#000000;" edge="1" parent="1" source="zT3ZHp9hSMFfmm2dRahb-2" target="zT3ZHp9hSMFfmm2dRahb-4">
          <mxGeometry relative="1" as="geometry" />
        </mxCell>
        <mxCell id="H_drZzRzeJkwArdPm9RS-2" style="edgeStyle=orthogonalEdgeStyle;rounded=0;orthogonalLoop=1;jettySize=auto;html=1;exitX=1;exitY=0.5;exitDx=0;exitDy=0;entryX=0;entryY=0.5;entryDx=0;entryDy=0;" edge="1" parent="1" source="zT3ZHp9hSMFfmm2dRahb-2" target="H_drZzRzeJkwArdPm9RS-1">
          <mxGeometry relative="1" as="geometry" />
        </mxCell>
        <mxCell id="zT3ZHp9hSMFfmm2dRahb-2" value="&lt;div style=&quot;font-size: 13px;&quot;&gt;&lt;font style=&quot;font-size: 13px;&quot;&gt;Entries &lt;br&gt;&lt;/font&gt;&lt;/div&gt;&lt;div style=&quot;font-size: 13px;&quot;&gt;&lt;font style=&quot;font-size: 13px;&quot;&gt;Table&lt;/font&gt;&lt;/div&gt;" style="whiteSpace=wrap;html=1;aspect=fixed;fontSize=11;fontColor=#000000;" vertex="1" parent="1">
          <mxGeometry x="750" y="20" width="80" height="80" as="geometry" />
        </mxCell>
        <mxCell id="zT3ZHp9hSMFfmm2dRahb-4" value="entries" style="swimlane;fontStyle=0;childLayout=stackLayout;horizontal=1;startSize=26;fillColor=none;horizontalStack=0;resizeParent=1;resizeParentMax=0;resizeLast=0;collapsible=1;marginBottom=0;fontSize=11;fontColor=#000000;" vertex="1" parent="1">
          <mxGeometry x="670" y="130" width="240" height="624" as="geometry" />
        </mxCell>
        <mxCell id="zT3ZHp9hSMFfmm2dRahb-5" value="+ id: INTEGER PRIMARY KEY" style="text;strokeColor=none;fillColor=none;align=left;verticalAlign=top;spacingLeft=4;spacingRight=4;overflow=hidden;rotatable=0;points=[[0,0.5],[1,0.5]];portConstraint=eastwest;fontSize=12;fontColor=#000000;" vertex="1" parent="zT3ZHp9hSMFfmm2dRahb-4">
          <mxGeometry y="26" width="240" height="26" as="geometry" />
        </mxCell>
        <mxCell id="zT3ZHp9hSMFfmm2dRahb-8" value="+ name: TEXT" style="text;strokeColor=none;fillColor=none;align=left;verticalAlign=top;spacingLeft=4;spacingRight=4;overflow=hidden;rotatable=0;points=[[0,0.5],[1,0.5]];portConstraint=eastwest;fontSize=12;fontColor=#000000;" vertex="1" parent="zT3ZHp9hSMFfmm2dRahb-4">
          <mxGeometry y="52" width="240" height="26" as="geometry" />
        </mxCell>
        <mxCell id="zT3ZHp9hSMFfmm2dRahb-6" value="+ type: TEXT" style="text;strokeColor=none;fillColor=none;align=left;verticalAlign=top;spacingLeft=4;spacingRight=4;overflow=hidden;rotatable=0;points=[[0,0.5],[1,0.5]];portConstraint=eastwest;fontSize=12;fontColor=#000000;" vertex="1" parent="zT3ZHp9hSMFfmm2dRahb-4">
          <mxGeometry y="78" width="240" height="26" as="geometry" />
        </mxCell>
        <mxCell id="zT3ZHp9hSMFfmm2dRahb-7" value="+ inode: INT64" style="text;strokeColor=none;fillColor=none;align=left;verticalAlign=top;spacingLeft=4;spacingRight=4;overflow=hidden;rotatable=0;points=[[0,0.5],[1,0.5]];portConstraint=eastwest;fontSize=12;fontColor=#000000;" vertex="1" parent="zT3ZHp9hSMFfmm2dRahb-4">
          <mxGeometry y="104" width="240" height="26" as="geometry" />
        </mxCell>
        <mxCell id="zT3ZHp9hSMFfmm2dRahb-9" value="+ mode: INT64" style="text;strokeColor=none;fillColor=none;align=left;verticalAlign=top;spacingLeft=4;spacingRight=4;overflow=hidden;rotatable=0;points=[[0,0.5],[1,0.5]];portConstraint=eastwest;fontSize=12;fontColor=#000000;" vertex="1" parent="zT3ZHp9hSMFfmm2dRahb-4">
          <mxGeometry y="130" width="240" height="26" as="geometry" />
        </mxCell>
        <mxCell id="zT3ZHp9hSMFfmm2dRahb-10" value="+ nlink: INT64" style="text;strokeColor=none;fillColor=none;align=left;verticalAlign=top;spacingLeft=4;spacingRight=4;overflow=hidden;rotatable=0;points=[[0,0.5],[1,0.5]];portConstraint=eastwest;fontSize=12;fontColor=#000000;" vertex="1" parent="zT3ZHp9hSMFfmm2dRahb-4">
          <mxGeometry y="156" width="240" height="26" as="geometry" />
        </mxCell>
        <mxCell id="zT3ZHp9hSMFfmm2dRahb-11" value="+ uid: INT64" style="text;strokeColor=none;fillColor=none;align=left;verticalAlign=top;spacingLeft=4;spacingRight=4;overflow=hidden;rotatable=0;points=[[0,0.5],[1,0.5]];portConstraint=eastwest;fontSize=12;fontColor=#000000;" vertex="1" parent="zT3ZHp9hSMFfmm2dRahb-4">
          <mxGeometry y="182" width="240" height="26" as="geometry" />
        </mxCell>
        <mxCell id="zT3ZHp9hSMFfmm2dRahb-12" value="+ gid: INT64" style="text;strokeColor=none;fillColor=none;align=left;verticalAlign=top;spacingLeft=4;spacingRight=4;overflow=hidden;rotatable=0;points=[[0,0.5],[1,0.5]];portConstraint=eastwest;fontSize=12;fontColor=#000000;" vertex="1" parent="zT3ZHp9hSMFfmm2dRahb-4">
          <mxGeometry y="208" width="240" height="26" as="geometry" />
        </mxCell>
        <mxCell id="zT3ZHp9hSMFfmm2dRahb-13" value="+ size: INT64" style="text;strokeColor=none;fillColor=none;align=left;verticalAlign=top;spacingLeft=4;spacingRight=4;overflow=hidden;rotatable=0;points=[[0,0.5],[1,0.5]];portConstraint=eastwest;fontSize=12;fontColor=#000000;" vertex="1" parent="zT3ZHp9hSMFfmm2dRahb-4">
          <mxGeometry y="234" width="240" height="26" as="geometry" />
        </mxCell>
        <mxCell id="zT3ZHp9hSMFfmm2dRahb-14" value="+ blksize: INT64" style="text;strokeColor=none;fillColor=none;align=left;verticalAlign=top;spacingLeft=4;spacingRight=4;overflow=hidden;rotatable=0;points=[[0,0.5],[1,0.5]];portConstraint=eastwest;fontSize=12;fontColor=#000000;" vertex="1" parent="zT3ZHp9hSMFfmm2dRahb-4">
          <mxGeometry y="260" width="240" height="26" as="geometry" />
        </mxCell>
        <mxCell id="zT3ZHp9hSMFfmm2dRahb-15" value="+ blocks: INT64" style="text;strokeColor=none;fillColor=none;align=left;verticalAlign=top;spacingLeft=4;spacingRight=4;overflow=hidden;rotatable=0;points=[[0,0.5],[1,0.5]];portConstraint=eastwest;fontSize=12;fontColor=#000000;" vertex="1" parent="zT3ZHp9hSMFfmm2dRahb-4">
          <mxGeometry y="286" width="240" height="26" as="geometry" />
        </mxCell>
        <mxCell id="zT3ZHp9hSMFfmm2dRahb-16" value="+ atime: INT64" style="text;strokeColor=none;fillColor=none;align=left;verticalAlign=top;spacingLeft=4;spacingRight=4;overflow=hidden;rotatable=0;points=[[0,0.5],[1,0.5]];portConstraint=eastwest;fontSize=12;fontColor=#000000;" vertex="1" parent="zT3ZHp9hSMFfmm2dRahb-4">
          <mxGeometry y="312" width="240" height="26" as="geometry" />
        </mxCell>
        <mxCell id="zT3ZHp9hSMFfmm2dRahb-17" value="+ mtime: INT64" style="text;strokeColor=none;fillColor=none;align=left;verticalAlign=top;spacingLeft=4;spacingRight=4;overflow=hidden;rotatable=0;points=[[0,0.5],[1,0.5]];portConstraint=eastwest;fontSize=12;fontColor=#000000;" vertex="1" parent="zT3ZHp9hSMFfmm2dRahb-4">
          <mxGeometry y="338" width="240" height="26" as="geometry" />
        </mxCell>
        <mxCell id="zT3ZHp9hSMFfmm2dRahb-18" value="+ ctime: INT64" style="text;strokeColor=none;fillColor=none;align=left;verticalAlign=top;spacingLeft=4;spacingRight=4;overflow=hidden;rotatable=0;points=[[0,0.5],[1,0.5]];portConstraint=eastwest;fontSize=12;fontColor=#000000;" vertex="1" parent="zT3ZHp9hSMFfmm2dRahb-4">
          <mxGeometry y="364" width="240" height="26" as="geometry" />
        </mxCell>
        <mxCell id="zT3ZHp9hSMFfmm2dRahb-19" value="+ linkname: TEXT" style="text;strokeColor=none;fillColor=none;align=left;verticalAlign=top;spacingLeft=4;spacingRight=4;overflow=hidden;rotatable=0;points=[[0,0.5],[1,0.5]];portConstraint=eastwest;fontSize=12;fontColor=#000000;" vertex="1" parent="zT3ZHp9hSMFfmm2dRahb-4">
          <mxGeometry y="390" width="240" height="26" as="geometry" />
        </mxCell>
        <mxCell id="zT3ZHp9hSMFfmm2dRahb-20" value="+ xattr_names: BLOB" style="text;strokeColor=none;fillColor=none;align=left;verticalAlign=top;spacingLeft=4;spacingRight=4;overflow=hidden;rotatable=0;points=[[0,0.5],[1,0.5]];portConstraint=eastwest;fontSize=12;fontColor=#000000;" vertex="1" parent="zT3ZHp9hSMFfmm2dRahb-4">
          <mxGeometry y="416" width="240" height="26" as="geometry" />
        </mxCell>
        <mxCell id="zT3ZHp9hSMFfmm2dRahb-21" value="+ crtime: INT64" style="text;strokeColor=none;fillColor=none;align=left;verticalAlign=top;spacingLeft=4;spacingRight=4;overflow=hidden;rotatable=0;points=[[0,0.5],[1,0.5]];portConstraint=eastwest;fontSize=12;fontColor=#000000;" vertex="1" parent="zT3ZHp9hSMFfmm2dRahb-4">
          <mxGeometry y="442" width="240" height="26" as="geometry" />
        </mxCell>
        <mxCell id="zT3ZHp9hSMFfmm2dRahb-22" value="+ ossint1: INT64" style="text;strokeColor=none;fillColor=none;align=left;verticalAlign=top;spacingLeft=4;spacingRight=4;overflow=hidden;rotatable=0;points=[[0,0.5],[1,0.5]];portConstraint=eastwest;fontSize=12;fontColor=#000000;" vertex="1" parent="zT3ZHp9hSMFfmm2dRahb-4">
          <mxGeometry y="468" width="240" height="26" as="geometry" />
        </mxCell>
        <mxCell id="zT3ZHp9hSMFfmm2dRahb-23" value="+ ossint2: INT64" style="text;strokeColor=none;fillColor=none;align=left;verticalAlign=top;spacingLeft=4;spacingRight=4;overflow=hidden;rotatable=0;points=[[0,0.5],[1,0.5]];portConstraint=eastwest;fontSize=12;fontColor=#000000;" vertex="1" parent="zT3ZHp9hSMFfmm2dRahb-4">
          <mxGeometry y="494" width="240" height="26" as="geometry" />
        </mxCell>
        <mxCell id="zT3ZHp9hSMFfmm2dRahb-24" value="+ ossint3: INT64" style="text;strokeColor=none;fillColor=none;align=left;verticalAlign=top;spacingLeft=4;spacingRight=4;overflow=hidden;rotatable=0;points=[[0,0.5],[1,0.5]];portConstraint=eastwest;fontSize=12;fontColor=#000000;" vertex="1" parent="zT3ZHp9hSMFfmm2dRahb-4">
          <mxGeometry y="520" width="240" height="26" as="geometry" />
        </mxCell>
        <mxCell id="zT3ZHp9hSMFfmm2dRahb-25" value="+ ossint4: INT64" style="text;strokeColor=none;fillColor=none;align=left;verticalAlign=top;spacingLeft=4;spacingRight=4;overflow=hidden;rotatable=0;points=[[0,0.5],[1,0.5]];portConstraint=eastwest;fontSize=12;fontColor=#000000;" vertex="1" parent="zT3ZHp9hSMFfmm2dRahb-4">
          <mxGeometry y="546" width="240" height="26" as="geometry" />
        </mxCell>
        <mxCell id="zT3ZHp9hSMFfmm2dRahb-26" value="+ osstext1: TEXT" style="text;strokeColor=none;fillColor=none;align=left;verticalAlign=top;spacingLeft=4;spacingRight=4;overflow=hidden;rotatable=0;points=[[0,0.5],[1,0.5]];portConstraint=eastwest;fontSize=12;fontColor=#000000;" vertex="1" parent="zT3ZHp9hSMFfmm2dRahb-4">
          <mxGeometry y="572" width="240" height="26" as="geometry" />
        </mxCell>
        <mxCell id="zT3ZHp9hSMFfmm2dRahb-27" value="+ osstext2: TEXT" style="text;strokeColor=none;fillColor=none;align=left;verticalAlign=top;spacingLeft=4;spacingRight=4;overflow=hidden;rotatable=0;points=[[0,0.5],[1,0.5]];portConstraint=eastwest;fontSize=12;fontColor=#000000;" vertex="1" parent="zT3ZHp9hSMFfmm2dRahb-4">
          <mxGeometry y="598" width="240" height="26" as="geometry" />
        </mxCell>
        <mxCell id="CGvsTR9XaRbPzgTNPZg9-32" value="" style="shape=table;html=1;whiteSpace=wrap;startSize=0;container=1;collapsible=0;childLayout=tableLayout;columnLines=0;rowLines=0;fontColor=#000000;" vertex="1" parent="1">
          <mxGeometry x="20" y="140" width="620" height="400" as="geometry" />
        </mxCell>
        <mxCell id="CGvsTR9XaRbPzgTNPZg9-33" value="" style="shape=tableRow;horizontal=0;startSize=0;swimlaneHead=0;swimlaneBody=0;top=0;left=0;bottom=0;right=0;collapsible=0;dropTarget=0;fillColor=none;points=[[0,0.5],[1,0.5]];portConstraint=eastwest;fontColor=#000000;" vertex="1" parent="CGvsTR9XaRbPzgTNPZg9-32">
          <mxGeometry width="620" height="40" as="geometry" />
        </mxCell>
        <mxCell id="CGvsTR9XaRbPzgTNPZg9-34" value="id: IPK" style="shape=partialRectangle;html=1;whiteSpace=wrap;connectable=0;fillColor=none;top=0;left=0;bottom=0;right=0;overflow=hidden;fontSize=12;fontColor=#000000;" vertex="1" parent="CGvsTR9XaRbPzgTNPZg9-33">
          <mxGeometry width="100" height="40" as="geometry">
            <mxRectangle width="100" height="40" as="alternateBounds" />
          </mxGeometry>
        </mxCell>
        <mxCell id="CGvsTR9XaRbPzgTNPZg9-35" value="name: TEXT" style="shape=partialRectangle;html=1;whiteSpace=wrap;connectable=0;fillColor=none;top=0;left=0;bottom=0;right=0;overflow=hidden;fontSize=12;fontColor=#000000;" vertex="1" parent="CGvsTR9XaRbPzgTNPZg9-33">
          <mxGeometry x="100" width="100" height="40" as="geometry">
            <mxRectangle width="100" height="40" as="alternateBounds" />
          </mxGeometry>
        </mxCell>
        <mxCell id="CGvsTR9XaRbPzgTNPZg9-36" value="type: TEXT " style="shape=partialRectangle;html=1;whiteSpace=wrap;connectable=0;fillColor=none;top=0;left=0;bottom=0;right=0;overflow=hidden;fontSize=12;fontColor=#000000;" vertex="1" parent="CGvsTR9XaRbPzgTNPZg9-33">
          <mxGeometry x="200" width="110" height="40" as="geometry">
            <mxRectangle width="110" height="40" as="alternateBounds" />
          </mxGeometry>
        </mxCell>
        <mxCell id="CGvsTR9XaRbPzgTNPZg9-104" value="inode: INT64" style="shape=partialRectangle;html=1;whiteSpace=wrap;connectable=0;fillColor=none;top=0;left=0;bottom=0;right=0;overflow=hidden;fontSize=12;fontColor=#000000;" vertex="1" parent="CGvsTR9XaRbPzgTNPZg9-33">
          <mxGeometry x="310" width="100" height="40" as="geometry">
            <mxRectangle width="100" height="40" as="alternateBounds" />
          </mxGeometry>
        </mxCell>
        <mxCell id="CGvsTR9XaRbPzgTNPZg9-112" value="mode: INT64" style="shape=partialRectangle;html=1;whiteSpace=wrap;connectable=0;fillColor=none;top=0;left=0;bottom=0;right=0;overflow=hidden;fontSize=12;fontColor=#000000;" vertex="1" parent="CGvsTR9XaRbPzgTNPZg9-33">
          <mxGeometry x="410" width="100" height="40" as="geometry">
            <mxRectangle width="100" height="40" as="alternateBounds" />
          </mxGeometry>
        </mxCell>
        <mxCell id="CGvsTR9XaRbPzgTNPZg9-120" value="nlink: INT64" style="shape=partialRectangle;html=1;whiteSpace=wrap;connectable=0;fillColor=none;top=0;left=0;bottom=0;right=0;overflow=hidden;fontSize=12;fontColor=#000000;" vertex="1" parent="CGvsTR9XaRbPzgTNPZg9-33">
          <mxGeometry x="510" width="110" height="40" as="geometry">
            <mxRectangle width="110" height="40" as="alternateBounds" />
          </mxGeometry>
        </mxCell>
        <mxCell id="CGvsTR9XaRbPzgTNPZg9-37" value="" style="shape=tableRow;horizontal=0;startSize=0;swimlaneHead=0;swimlaneBody=0;top=0;left=0;bottom=0;right=0;collapsible=0;dropTarget=0;fillColor=none;points=[[0,0.5],[1,0.5]];portConstraint=eastwest;fontColor=#000000;" vertex="1" parent="CGvsTR9XaRbPzgTNPZg9-32">
          <mxGeometry y="40" width="620" height="40" as="geometry" />
        </mxCell>
        <mxCell id="CGvsTR9XaRbPzgTNPZg9-38" value="uid: INT64" style="shape=partialRectangle;html=1;whiteSpace=wrap;connectable=0;fillColor=none;top=0;left=0;bottom=0;right=0;overflow=hidden;fontSize=12;fontColor=#000000;" vertex="1" parent="CGvsTR9XaRbPzgTNPZg9-37">
          <mxGeometry width="100" height="40" as="geometry">
            <mxRectangle width="100" height="40" as="alternateBounds" />
          </mxGeometry>
        </mxCell>
        <mxCell id="CGvsTR9XaRbPzgTNPZg9-39" value="gid: INT64" style="shape=partialRectangle;html=1;whiteSpace=wrap;connectable=0;fillColor=none;top=0;left=0;bottom=0;right=0;overflow=hidden;fontSize=12;fontColor=#000000;" vertex="1" parent="CGvsTR9XaRbPzgTNPZg9-37">
          <mxGeometry x="100" width="100" height="40" as="geometry">
            <mxRectangle width="100" height="40" as="alternateBounds" />
          </mxGeometry>
        </mxCell>
        <mxCell id="CGvsTR9XaRbPzgTNPZg9-40" value="size: INT64" style="shape=partialRectangle;html=1;whiteSpace=wrap;connectable=0;fillColor=none;top=0;left=0;bottom=0;right=0;overflow=hidden;fontSize=12;fontColor=#000000;" vertex="1" parent="CGvsTR9XaRbPzgTNPZg9-37">
          <mxGeometry x="200" width="110" height="40" as="geometry">
            <mxRectangle width="110" height="40" as="alternateBounds" />
          </mxGeometry>
        </mxCell>
        <mxCell id="CGvsTR9XaRbPzgTNPZg9-105" value="blksize:INT64" style="shape=partialRectangle;html=1;whiteSpace=wrap;connectable=0;fillColor=none;top=0;left=0;bottom=0;right=0;overflow=hidden;fontSize=12;fontColor=#000000;" vertex="1" parent="CGvsTR9XaRbPzgTNPZg9-37">
          <mxGeometry x="310" width="100" height="40" as="geometry">
            <mxRectangle width="100" height="40" as="alternateBounds" />
          </mxGeometry>
        </mxCell>
        <mxCell id="CGvsTR9XaRbPzgTNPZg9-113" value="blocks:INT64" style="shape=partialRectangle;html=1;whiteSpace=wrap;connectable=0;fillColor=none;top=0;left=0;bottom=0;right=0;overflow=hidden;fontSize=12;fontColor=#000000;" vertex="1" parent="CGvsTR9XaRbPzgTNPZg9-37">
          <mxGeometry x="410" width="100" height="40" as="geometry">
            <mxRectangle width="100" height="40" as="alternateBounds" />
          </mxGeometry>
        </mxCell>
        <mxCell id="CGvsTR9XaRbPzgTNPZg9-121" value="atime: INT64" style="shape=partialRectangle;html=1;whiteSpace=wrap;connectable=0;fillColor=none;top=0;left=0;bottom=0;right=0;overflow=hidden;fontSize=12;fontColor=#000000;" vertex="1" parent="CGvsTR9XaRbPzgTNPZg9-37">
          <mxGeometry x="510" width="110" height="40" as="geometry">
            <mxRectangle width="110" height="40" as="alternateBounds" />
          </mxGeometry>
        </mxCell>
        <mxCell id="CGvsTR9XaRbPzgTNPZg9-41" value="" style="shape=tableRow;horizontal=0;startSize=0;swimlaneHead=0;swimlaneBody=0;top=0;left=0;bottom=0;right=0;collapsible=0;dropTarget=0;fillColor=none;points=[[0,0.5],[1,0.5]];portConstraint=eastwest;fontColor=#000000;" vertex="1" parent="CGvsTR9XaRbPzgTNPZg9-32">
          <mxGeometry y="80" width="620" height="40" as="geometry" />
        </mxCell>
        <mxCell id="CGvsTR9XaRbPzgTNPZg9-42" value="mtime: INT64" style="shape=partialRectangle;html=1;whiteSpace=wrap;connectable=0;fillColor=none;top=0;left=0;bottom=0;right=0;overflow=hidden;fontSize=12;fontColor=#000000;" vertex="1" parent="CGvsTR9XaRbPzgTNPZg9-41">
          <mxGeometry width="100" height="40" as="geometry">
            <mxRectangle width="100" height="40" as="alternateBounds" />
          </mxGeometry>
        </mxCell>
        <mxCell id="CGvsTR9XaRbPzgTNPZg9-43" value="ctime: INT64" style="shape=partialRectangle;html=1;whiteSpace=wrap;connectable=0;fillColor=none;top=0;left=0;bottom=0;right=0;overflow=hidden;fontSize=12;fontColor=#000000;" vertex="1" parent="CGvsTR9XaRbPzgTNPZg9-41">
          <mxGeometry x="100" width="100" height="40" as="geometry">
            <mxRectangle width="100" height="40" as="alternateBounds" />
          </mxGeometry>
        </mxCell>
        <mxCell id="CGvsTR9XaRbPzgTNPZg9-44" value="linkname: TEXT" style="shape=partialRectangle;html=1;whiteSpace=wrap;connectable=0;fillColor=none;top=0;left=0;bottom=0;right=0;overflow=hidden;fontSize=12;fontColor=#000000;" vertex="1" parent="CGvsTR9XaRbPzgTNPZg9-41">
          <mxGeometry x="200" width="110" height="40" as="geometry">
            <mxRectangle width="110" height="40" as="alternateBounds" />
          </mxGeometry>
        </mxCell>
        <mxCell id="CGvsTR9XaRbPzgTNPZg9-106" value="xattr_names: BLOB" style="shape=partialRectangle;html=1;whiteSpace=wrap;connectable=0;fillColor=none;top=0;left=0;bottom=0;right=0;overflow=hidden;fontSize=12;fontColor=#000000;" vertex="1" parent="CGvsTR9XaRbPzgTNPZg9-41">
          <mxGeometry x="310" width="100" height="40" as="geometry">
            <mxRectangle width="100" height="40" as="alternateBounds" />
          </mxGeometry>
        </mxCell>
        <mxCell id="CGvsTR9XaRbPzgTNPZg9-114" value="totfiles: INT64" style="shape=partialRectangle;html=1;whiteSpace=wrap;connectable=0;fillColor=none;top=0;left=0;bottom=0;right=0;overflow=hidden;fontSize=12;fontColor=#000000;" vertex="1" parent="CGvsTR9XaRbPzgTNPZg9-41">
          <mxGeometry x="410" width="100" height="40" as="geometry">
            <mxRectangle width="100" height="40" as="alternateBounds" />
          </mxGeometry>
        </mxCell>
        <mxCell id="CGvsTR9XaRbPzgTNPZg9-122" value="totlinks: INT64" style="shape=partialRectangle;html=1;whiteSpace=wrap;connectable=0;fillColor=none;top=0;left=0;bottom=0;right=0;overflow=hidden;fontSize=12;fontColor=#000000;" vertex="1" parent="CGvsTR9XaRbPzgTNPZg9-41">
          <mxGeometry x="510" width="110" height="40" as="geometry">
            <mxRectangle width="110" height="40" as="alternateBounds" />
          </mxGeometry>
        </mxCell>
        <mxCell id="CGvsTR9XaRbPzgTNPZg9-84" value="" style="shape=tableRow;horizontal=0;startSize=0;swimlaneHead=0;swimlaneBody=0;top=0;left=0;bottom=0;right=0;collapsible=0;dropTarget=0;fillColor=none;points=[[0,0.5],[1,0.5]];portConstraint=eastwest;fontColor=#000000;" vertex="1" parent="CGvsTR9XaRbPzgTNPZg9-32">
          <mxGeometry y="120" width="620" height="40" as="geometry" />
        </mxCell>
        <mxCell id="CGvsTR9XaRbPzgTNPZg9-85" value="minuid: INT64" style="shape=partialRectangle;html=1;whiteSpace=wrap;connectable=0;fillColor=none;top=0;left=0;bottom=0;right=0;overflow=hidden;fontSize=12;fontColor=#000000;" vertex="1" parent="CGvsTR9XaRbPzgTNPZg9-84">
          <mxGeometry width="100" height="40" as="geometry">
            <mxRectangle width="100" height="40" as="alternateBounds" />
          </mxGeometry>
        </mxCell>
        <mxCell id="CGvsTR9XaRbPzgTNPZg9-86" value="maxuid: INT64" style="shape=partialRectangle;html=1;whiteSpace=wrap;connectable=0;fillColor=none;top=0;left=0;bottom=0;right=0;overflow=hidden;fontSize=12;fontColor=#000000;" vertex="1" parent="CGvsTR9XaRbPzgTNPZg9-84">
          <mxGeometry x="100" width="100" height="40" as="geometry">
            <mxRectangle width="100" height="40" as="alternateBounds" />
          </mxGeometry>
        </mxCell>
        <mxCell id="CGvsTR9XaRbPzgTNPZg9-87" value="mingid: INT64" style="shape=partialRectangle;html=1;whiteSpace=wrap;connectable=0;fillColor=none;top=0;left=0;bottom=0;right=0;overflow=hidden;fontSize=12;fontColor=#000000;" vertex="1" parent="CGvsTR9XaRbPzgTNPZg9-84">
          <mxGeometry x="200" width="110" height="40" as="geometry">
            <mxRectangle width="110" height="40" as="alternateBounds" />
          </mxGeometry>
        </mxCell>
        <mxCell id="CGvsTR9XaRbPzgTNPZg9-107" value="maxgid: INT64" style="shape=partialRectangle;html=1;whiteSpace=wrap;connectable=0;fillColor=none;top=0;left=0;bottom=0;right=0;overflow=hidden;fontSize=12;fontColor=#000000;" vertex="1" parent="CGvsTR9XaRbPzgTNPZg9-84">
          <mxGeometry x="310" width="100" height="40" as="geometry">
            <mxRectangle width="100" height="40" as="alternateBounds" />
          </mxGeometry>
        </mxCell>
        <mxCell id="CGvsTR9XaRbPzgTNPZg9-115" value="minsize: INT64" style="shape=partialRectangle;html=1;whiteSpace=wrap;connectable=0;fillColor=none;top=0;left=0;bottom=0;right=0;overflow=hidden;fontSize=12;fontColor=#000000;" vertex="1" parent="CGvsTR9XaRbPzgTNPZg9-84">
          <mxGeometry x="410" width="100" height="40" as="geometry">
            <mxRectangle width="100" height="40" as="alternateBounds" />
          </mxGeometry>
        </mxCell>
        <mxCell id="CGvsTR9XaRbPzgTNPZg9-123" value="maxsize: INT64" style="shape=partialRectangle;html=1;whiteSpace=wrap;connectable=0;fillColor=none;top=0;left=0;bottom=0;right=0;overflow=hidden;fontSize=12;fontColor=#000000;" vertex="1" parent="CGvsTR9XaRbPzgTNPZg9-84">
          <mxGeometry x="510" width="110" height="40" as="geometry">
            <mxRectangle width="110" height="40" as="alternateBounds" />
          </mxGeometry>
        </mxCell>
        <mxCell id="CGvsTR9XaRbPzgTNPZg9-88" value="" style="shape=tableRow;horizontal=0;startSize=0;swimlaneHead=0;swimlaneBody=0;top=0;left=0;bottom=0;right=0;collapsible=0;dropTarget=0;fillColor=none;points=[[0,0.5],[1,0.5]];portConstraint=eastwest;fontColor=#000000;" vertex="1" parent="CGvsTR9XaRbPzgTNPZg9-32">
          <mxGeometry y="160" width="620" height="40" as="geometry" />
        </mxCell>
        <mxCell id="CGvsTR9XaRbPzgTNPZg9-89" value="totltk: INT64" style="shape=partialRectangle;html=1;whiteSpace=wrap;connectable=0;fillColor=none;top=0;left=0;bottom=0;right=0;overflow=hidden;fontSize=12;fontColor=#000000;" vertex="1" parent="CGvsTR9XaRbPzgTNPZg9-88">
          <mxGeometry width="100" height="40" as="geometry">
            <mxRectangle width="100" height="40" as="alternateBounds" />
          </mxGeometry>
        </mxCell>
        <mxCell id="CGvsTR9XaRbPzgTNPZg9-90" value="totmtk: INT64" style="shape=partialRectangle;html=1;whiteSpace=wrap;connectable=0;fillColor=none;top=0;left=0;bottom=0;right=0;overflow=hidden;fontSize=12;fontColor=#000000;" vertex="1" parent="CGvsTR9XaRbPzgTNPZg9-88">
          <mxGeometry x="100" width="100" height="40" as="geometry">
            <mxRectangle width="100" height="40" as="alternateBounds" />
          </mxGeometry>
        </mxCell>
        <mxCell id="CGvsTR9XaRbPzgTNPZg9-91" value="totltm: INT64" style="shape=partialRectangle;html=1;whiteSpace=wrap;connectable=0;fillColor=none;top=0;left=0;bottom=0;right=0;overflow=hidden;fontSize=12;fontColor=#000000;" vertex="1" parent="CGvsTR9XaRbPzgTNPZg9-88">
          <mxGeometry x="200" width="110" height="40" as="geometry">
            <mxRectangle width="110" height="40" as="alternateBounds" />
          </mxGeometry>
        </mxCell>
        <mxCell id="CGvsTR9XaRbPzgTNPZg9-108" value="totmtm: INT64" style="shape=partialRectangle;html=1;whiteSpace=wrap;connectable=0;fillColor=none;top=0;left=0;bottom=0;right=0;overflow=hidden;fontSize=12;fontColor=#000000;" vertex="1" parent="CGvsTR9XaRbPzgTNPZg9-88">
          <mxGeometry x="310" width="100" height="40" as="geometry">
            <mxRectangle width="100" height="40" as="alternateBounds" />
          </mxGeometry>
        </mxCell>
        <mxCell id="CGvsTR9XaRbPzgTNPZg9-116" value="totmtg: INT64" style="shape=partialRectangle;html=1;whiteSpace=wrap;connectable=0;fillColor=none;top=0;left=0;bottom=0;right=0;overflow=hidden;fontSize=12;fontColor=#000000;" vertex="1" parent="CGvsTR9XaRbPzgTNPZg9-88">
          <mxGeometry x="410" width="100" height="40" as="geometry">
            <mxRectangle width="100" height="40" as="alternateBounds" />
          </mxGeometry>
        </mxCell>
        <mxCell id="CGvsTR9XaRbPzgTNPZg9-124" value="totmtt: INT64" style="shape=partialRectangle;html=1;whiteSpace=wrap;connectable=0;fillColor=none;top=0;left=0;bottom=0;right=0;overflow=hidden;fontSize=12;fontColor=#000000;" vertex="1" parent="CGvsTR9XaRbPzgTNPZg9-88">
          <mxGeometry x="510" width="110" height="40" as="geometry">
            <mxRectangle width="110" height="40" as="alternateBounds" />
          </mxGeometry>
        </mxCell>
        <mxCell id="CGvsTR9XaRbPzgTNPZg9-92" value="" style="shape=tableRow;horizontal=0;startSize=0;swimlaneHead=0;swimlaneBody=0;top=0;left=0;bottom=0;right=0;collapsible=0;dropTarget=0;fillColor=none;points=[[0,0.5],[1,0.5]];portConstraint=eastwest;fontColor=#000000;" vertex="1" parent="CGvsTR9XaRbPzgTNPZg9-32">
          <mxGeometry y="200" width="620" height="40" as="geometry" />
        </mxCell>
        <mxCell id="CGvsTR9XaRbPzgTNPZg9-93" value="totsize: INT64" style="shape=partialRectangle;html=1;whiteSpace=wrap;connectable=0;fillColor=none;top=0;left=0;bottom=0;right=0;overflow=hidden;fontSize=12;fontColor=#000000;" vertex="1" parent="CGvsTR9XaRbPzgTNPZg9-92">
          <mxGeometry width="100" height="40" as="geometry">
            <mxRectangle width="100" height="40" as="alternateBounds" />
          </mxGeometry>
        </mxCell>
        <mxCell id="CGvsTR9XaRbPzgTNPZg9-94" value="minctime: INT64" style="shape=partialRectangle;html=1;whiteSpace=wrap;connectable=0;fillColor=none;top=0;left=0;bottom=0;right=0;overflow=hidden;fontSize=12;fontColor=#000000;" vertex="1" parent="CGvsTR9XaRbPzgTNPZg9-92">
          <mxGeometry x="100" width="100" height="40" as="geometry">
            <mxRectangle width="100" height="40" as="alternateBounds" />
          </mxGeometry>
        </mxCell>
        <mxCell id="CGvsTR9XaRbPzgTNPZg9-95" value="maxctime: INT64" style="shape=partialRectangle;html=1;whiteSpace=wrap;connectable=0;fillColor=none;top=0;left=0;bottom=0;right=0;overflow=hidden;fontSize=12;fontColor=#000000;" vertex="1" parent="CGvsTR9XaRbPzgTNPZg9-92">
          <mxGeometry x="200" width="110" height="40" as="geometry">
            <mxRectangle width="110" height="40" as="alternateBounds" />
          </mxGeometry>
        </mxCell>
        <mxCell id="CGvsTR9XaRbPzgTNPZg9-109" value="minmtime: INT64" style="shape=partialRectangle;html=1;whiteSpace=wrap;connectable=0;fillColor=none;top=0;left=0;bottom=0;right=0;overflow=hidden;fontSize=12;fontColor=#000000;" vertex="1" parent="CGvsTR9XaRbPzgTNPZg9-92">
          <mxGeometry x="310" width="100" height="40" as="geometry">
            <mxRectangle width="100" height="40" as="alternateBounds" />
          </mxGeometry>
        </mxCell>
        <mxCell id="CGvsTR9XaRbPzgTNPZg9-117" value="maxmtime: INT64" style="shape=partialRectangle;html=1;whiteSpace=wrap;connectable=0;fillColor=none;top=0;left=0;bottom=0;right=0;overflow=hidden;fontSize=12;fontColor=#000000;" vertex="1" parent="CGvsTR9XaRbPzgTNPZg9-92">
          <mxGeometry x="410" width="100" height="40" as="geometry">
            <mxRectangle width="100" height="40" as="alternateBounds" />
          </mxGeometry>
        </mxCell>
        <mxCell id="CGvsTR9XaRbPzgTNPZg9-125" value="minatime: INT64" style="shape=partialRectangle;html=1;whiteSpace=wrap;connectable=0;fillColor=none;top=0;left=0;bottom=0;right=0;overflow=hidden;fontSize=12;fontColor=#000000;" vertex="1" parent="CGvsTR9XaRbPzgTNPZg9-92">
          <mxGeometry x="510" width="110" height="40" as="geometry">
            <mxRectangle width="110" height="40" as="alternateBounds" />
          </mxGeometry>
        </mxCell>
        <mxCell id="CGvsTR9XaRbPzgTNPZg9-96" value="" style="shape=tableRow;horizontal=0;startSize=0;swimlaneHead=0;swimlaneBody=0;top=0;left=0;bottom=0;right=0;collapsible=0;dropTarget=0;fillColor=none;points=[[0,0.5],[1,0.5]];portConstraint=eastwest;fontColor=#000000;" vertex="1" parent="CGvsTR9XaRbPzgTNPZg9-32">
          <mxGeometry y="240" width="620" height="40" as="geometry" />
        </mxCell>
        <mxCell id="CGvsTR9XaRbPzgTNPZg9-97" value="maxatime: INT64" style="shape=partialRectangle;html=1;whiteSpace=wrap;connectable=0;fillColor=none;top=0;left=0;bottom=0;right=0;overflow=hidden;fontSize=12;fontColor=#000000;" vertex="1" parent="CGvsTR9XaRbPzgTNPZg9-96">
          <mxGeometry width="100" height="40" as="geometry">
            <mxRectangle width="100" height="40" as="alternateBounds" />
          </mxGeometry>
        </mxCell>
        <mxCell id="CGvsTR9XaRbPzgTNPZg9-98" value="minblocks: INT64" style="shape=partialRectangle;html=1;whiteSpace=wrap;connectable=0;fillColor=none;top=0;left=0;bottom=0;right=0;overflow=hidden;fontSize=12;fontColor=#000000;" vertex="1" parent="CGvsTR9XaRbPzgTNPZg9-96">
          <mxGeometry x="100" width="100" height="40" as="geometry">
            <mxRectangle width="100" height="40" as="alternateBounds" />
          </mxGeometry>
        </mxCell>
        <mxCell id="CGvsTR9XaRbPzgTNPZg9-99" value="maxblocks:INT64" style="shape=partialRectangle;html=1;whiteSpace=wrap;connectable=0;fillColor=none;top=0;left=0;bottom=0;right=0;overflow=hidden;fontSize=12;fontColor=#000000;" vertex="1" parent="CGvsTR9XaRbPzgTNPZg9-96">
          <mxGeometry x="200" width="110" height="40" as="geometry">
            <mxRectangle width="110" height="40" as="alternateBounds" />
          </mxGeometry>
        </mxCell>
        <mxCell id="CGvsTR9XaRbPzgTNPZg9-110" value="totxattr: INT64" style="shape=partialRectangle;html=1;whiteSpace=wrap;connectable=0;fillColor=none;top=0;left=0;bottom=0;right=0;overflow=hidden;fontSize=12;fontColor=#000000;" vertex="1" parent="CGvsTR9XaRbPzgTNPZg9-96">
          <mxGeometry x="310" width="100" height="40" as="geometry">
            <mxRectangle width="100" height="40" as="alternateBounds" />
          </mxGeometry>
        </mxCell>
        <mxCell id="CGvsTR9XaRbPzgTNPZg9-118" value="depth: INT64" style="shape=partialRectangle;html=1;whiteSpace=wrap;connectable=0;fillColor=none;top=0;left=0;bottom=0;right=0;overflow=hidden;fontSize=12;fontColor=#000000;" vertex="1" parent="CGvsTR9XaRbPzgTNPZg9-96">
          <mxGeometry x="410" width="100" height="40" as="geometry">
            <mxRectangle width="100" height="40" as="alternateBounds" />
          </mxGeometry>
        </mxCell>
        <mxCell id="CGvsTR9XaRbPzgTNPZg9-126" value="mincrtime: INT64" style="shape=partialRectangle;html=1;whiteSpace=wrap;connectable=0;fillColor=none;top=0;left=0;bottom=0;right=0;overflow=hidden;fontSize=12;fontColor=#000000;" vertex="1" parent="CGvsTR9XaRbPzgTNPZg9-96">
          <mxGeometry x="510" width="110" height="40" as="geometry">
            <mxRectangle width="110" height="40" as="alternateBounds" />
          </mxGeometry>
        </mxCell>
        <mxCell id="CGvsTR9XaRbPzgTNPZg9-100" value="" style="shape=tableRow;horizontal=0;startSize=0;swimlaneHead=0;swimlaneBody=0;top=0;left=0;bottom=0;right=0;collapsible=0;dropTarget=0;fillColor=none;points=[[0,0.5],[1,0.5]];portConstraint=eastwest;fontColor=#000000;" vertex="1" parent="CGvsTR9XaRbPzgTNPZg9-32">
          <mxGeometry y="280" width="620" height="40" as="geometry" />
        </mxCell>
        <mxCell id="CGvsTR9XaRbPzgTNPZg9-101" value="maxcrtime: INT64" style="shape=partialRectangle;html=1;whiteSpace=wrap;connectable=0;fillColor=none;top=0;left=0;bottom=0;right=0;overflow=hidden;fontSize=12;fontColor=#000000;" vertex="1" parent="CGvsTR9XaRbPzgTNPZg9-100">
          <mxGeometry width="100" height="40" as="geometry">
            <mxRectangle width="100" height="40" as="alternateBounds" />
          </mxGeometry>
        </mxCell>
        <mxCell id="CGvsTR9XaRbPzgTNPZg9-102" value="minossint1: INT64" style="shape=partialRectangle;html=1;whiteSpace=wrap;connectable=0;fillColor=none;top=0;left=0;bottom=0;right=0;overflow=hidden;fontSize=12;fontColor=#000000;" vertex="1" parent="CGvsTR9XaRbPzgTNPZg9-100">
          <mxGeometry x="100" width="100" height="40" as="geometry">
            <mxRectangle width="100" height="40" as="alternateBounds" />
          </mxGeometry>
        </mxCell>
        <mxCell id="CGvsTR9XaRbPzgTNPZg9-103" value="maxossint1: INT64" style="shape=partialRectangle;html=1;whiteSpace=wrap;connectable=0;fillColor=none;top=0;left=0;bottom=0;right=0;overflow=hidden;fontSize=12;fontColor=#000000;" vertex="1" parent="CGvsTR9XaRbPzgTNPZg9-100">
          <mxGeometry x="200" width="110" height="40" as="geometry">
            <mxRectangle width="110" height="40" as="alternateBounds" />
          </mxGeometry>
        </mxCell>
        <mxCell id="CGvsTR9XaRbPzgTNPZg9-111" value="totossint1: INT64" style="shape=partialRectangle;html=1;whiteSpace=wrap;connectable=0;fillColor=none;top=0;left=0;bottom=0;right=0;overflow=hidden;fontSize=12;fontColor=#000000;" vertex="1" parent="CGvsTR9XaRbPzgTNPZg9-100">
          <mxGeometry x="310" width="100" height="40" as="geometry">
            <mxRectangle width="100" height="40" as="alternateBounds" />
          </mxGeometry>
        </mxCell>
        <mxCell id="CGvsTR9XaRbPzgTNPZg9-119" value="minossint2: INT64" style="shape=partialRectangle;html=1;whiteSpace=wrap;connectable=0;fillColor=none;top=0;left=0;bottom=0;right=0;overflow=hidden;fontSize=12;fontColor=#000000;" vertex="1" parent="CGvsTR9XaRbPzgTNPZg9-100">
          <mxGeometry x="410" width="100" height="40" as="geometry">
            <mxRectangle width="100" height="40" as="alternateBounds" />
          </mxGeometry>
        </mxCell>
        <mxCell id="CGvsTR9XaRbPzgTNPZg9-127" value="maxossint2: INT64" style="shape=partialRectangle;html=1;whiteSpace=wrap;connectable=0;fillColor=none;top=0;left=0;bottom=0;right=0;overflow=hidden;fontSize=12;fontColor=#000000;" vertex="1" parent="CGvsTR9XaRbPzgTNPZg9-100">
          <mxGeometry x="510" width="110" height="40" as="geometry">
            <mxRectangle width="110" height="40" as="alternateBounds" />
          </mxGeometry>
        </mxCell>
        <mxCell id="CGvsTR9XaRbPzgTNPZg9-135" style="shape=tableRow;horizontal=0;startSize=0;swimlaneHead=0;swimlaneBody=0;top=0;left=0;bottom=0;right=0;collapsible=0;dropTarget=0;fillColor=none;points=[[0,0.5],[1,0.5]];portConstraint=eastwest;fontColor=#000000;" vertex="1" parent="CGvsTR9XaRbPzgTNPZg9-32">
          <mxGeometry y="320" width="620" height="40" as="geometry" />
        </mxCell>
        <mxCell id="CGvsTR9XaRbPzgTNPZg9-136" value="totossint2: INT64" style="shape=partialRectangle;html=1;whiteSpace=wrap;connectable=0;fillColor=none;top=0;left=0;bottom=0;right=0;overflow=hidden;fontSize=12;fontColor=#000000;" vertex="1" parent="CGvsTR9XaRbPzgTNPZg9-135">
          <mxGeometry width="100" height="40" as="geometry">
            <mxRectangle width="100" height="40" as="alternateBounds" />
          </mxGeometry>
        </mxCell>
        <mxCell id="CGvsTR9XaRbPzgTNPZg9-137" value="minossint3: INT64" style="shape=partialRectangle;html=1;whiteSpace=wrap;connectable=0;fillColor=none;top=0;left=0;bottom=0;right=0;overflow=hidden;fontSize=12;fontColor=#000000;" vertex="1" parent="CGvsTR9XaRbPzgTNPZg9-135">
          <mxGeometry x="100" width="100" height="40" as="geometry">
            <mxRectangle width="100" height="40" as="alternateBounds" />
          </mxGeometry>
        </mxCell>
        <mxCell id="CGvsTR9XaRbPzgTNPZg9-138" value="maxossint3: INT64" style="shape=partialRectangle;html=1;whiteSpace=wrap;connectable=0;fillColor=none;top=0;left=0;bottom=0;right=0;overflow=hidden;fontSize=12;fontColor=#000000;" vertex="1" parent="CGvsTR9XaRbPzgTNPZg9-135">
          <mxGeometry x="200" width="110" height="40" as="geometry">
            <mxRectangle width="110" height="40" as="alternateBounds" />
          </mxGeometry>
        </mxCell>
        <mxCell id="CGvsTR9XaRbPzgTNPZg9-139" value="totossint3: INT64" style="shape=partialRectangle;html=1;whiteSpace=wrap;connectable=0;fillColor=none;top=0;left=0;bottom=0;right=0;overflow=hidden;fontSize=12;fontColor=#000000;" vertex="1" parent="CGvsTR9XaRbPzgTNPZg9-135">
          <mxGeometry x="310" width="100" height="40" as="geometry">
            <mxRectangle width="100" height="40" as="alternateBounds" />
          </mxGeometry>
        </mxCell>
        <mxCell id="CGvsTR9XaRbPzgTNPZg9-140" value="minossint4: INT64" style="shape=partialRectangle;html=1;whiteSpace=wrap;connectable=0;fillColor=none;top=0;left=0;bottom=0;right=0;overflow=hidden;fontSize=12;fontColor=#000000;" vertex="1" parent="CGvsTR9XaRbPzgTNPZg9-135">
          <mxGeometry x="410" width="100" height="40" as="geometry">
            <mxRectangle width="100" height="40" as="alternateBounds" />
          </mxGeometry>
        </mxCell>
        <mxCell id="CGvsTR9XaRbPzgTNPZg9-141" value="maxossint4: INT64" style="shape=partialRectangle;html=1;whiteSpace=wrap;connectable=0;fillColor=none;top=0;left=0;bottom=0;right=0;overflow=hidden;fontSize=12;fontColor=#000000;" vertex="1" parent="CGvsTR9XaRbPzgTNPZg9-135">
          <mxGeometry x="510" width="110" height="40" as="geometry">
            <mxRectangle width="110" height="40" as="alternateBounds" />
          </mxGeometry>
        </mxCell>
        <mxCell id="CGvsTR9XaRbPzgTNPZg9-128" style="shape=tableRow;horizontal=0;startSize=0;swimlaneHead=0;swimlaneBody=0;top=0;left=0;bottom=0;right=0;collapsible=0;dropTarget=0;fillColor=none;points=[[0,0.5],[1,0.5]];portConstraint=eastwest;fontColor=#000000;" vertex="1" parent="CGvsTR9XaRbPzgTNPZg9-32">
          <mxGeometry y="360" width="620" height="40" as="geometry" />
        </mxCell>
        <mxCell id="CGvsTR9XaRbPzgTNPZg9-129" value="totossint4: INT64" style="shape=partialRectangle;html=1;whiteSpace=wrap;connectable=0;fillColor=none;top=0;left=0;bottom=0;right=0;overflow=hidden;fontSize=12;fontColor=#000000;" vertex="1" parent="CGvsTR9XaRbPzgTNPZg9-128">
          <mxGeometry width="100" height="40" as="geometry">
            <mxRectangle width="100" height="40" as="alternateBounds" />
          </mxGeometry>
        </mxCell>
        <mxCell id="CGvsTR9XaRbPzgTNPZg9-130" value="rectype: INT64" style="shape=partialRectangle;html=1;whiteSpace=wrap;connectable=0;fillColor=none;top=0;left=0;bottom=0;right=0;overflow=hidden;fontSize=12;fontColor=#000000;" vertex="1" parent="CGvsTR9XaRbPzgTNPZg9-128">
          <mxGeometry x="100" width="100" height="40" as="geometry">
            <mxRectangle width="100" height="40" as="alternateBounds" />
          </mxGeometry>
        </mxCell>
        <mxCell id="CGvsTR9XaRbPzgTNPZg9-131" value="pinode: INT64" style="shape=partialRectangle;html=1;whiteSpace=wrap;connectable=0;fillColor=none;top=0;left=0;bottom=0;right=0;overflow=hidden;fontSize=12;fontColor=#000000;" vertex="1" parent="CGvsTR9XaRbPzgTNPZg9-128">
          <mxGeometry x="200" width="110" height="40" as="geometry">
            <mxRectangle width="110" height="40" as="alternateBounds" />
          </mxGeometry>
        </mxCell>
        <mxCell id="CGvsTR9XaRbPzgTNPZg9-132" value="isroot: INT64" style="shape=partialRectangle;html=1;whiteSpace=wrap;connectable=0;fillColor=none;top=0;left=0;bottom=0;right=0;overflow=hidden;fontSize=12;fontColor=#000000;" vertex="1" parent="CGvsTR9XaRbPzgTNPZg9-128">
          <mxGeometry x="310" width="100" height="40" as="geometry">
            <mxRectangle width="100" height="40" as="alternateBounds" />
          </mxGeometry>
        </mxCell>
        <mxCell id="CGvsTR9XaRbPzgTNPZg9-133" value="rollupscore: INT64" style="shape=partialRectangle;html=1;whiteSpace=wrap;connectable=0;fillColor=none;top=0;left=0;bottom=0;right=0;overflow=hidden;fontSize=12;fontColor=#000000;" vertex="1" parent="CGvsTR9XaRbPzgTNPZg9-128">
          <mxGeometry x="410" width="100" height="40" as="geometry">
            <mxRectangle width="100" height="40" as="alternateBounds" />
          </mxGeometry>
        </mxCell>
        <mxCell id="CGvsTR9XaRbPzgTNPZg9-134" value="*EMPTY*" style="shape=partialRectangle;html=1;whiteSpace=wrap;connectable=0;fillColor=#f8cecc;top=0;left=0;bottom=0;right=0;overflow=hidden;fontSize=12;strokeColor=#b85450;" vertex="1" parent="CGvsTR9XaRbPzgTNPZg9-128">
          <mxGeometry x="510" width="110" height="40" as="geometry">
            <mxRectangle width="110" height="40" as="alternateBounds" />
          </mxGeometry>
        </mxCell>
        <mxCell id="H_drZzRzeJkwArdPm9RS-4" value="" style="edgeStyle=orthogonalEdgeStyle;rounded=0;orthogonalLoop=1;jettySize=auto;html=1;" edge="1" parent="1" source="H_drZzRzeJkwArdPm9RS-1" target="H_drZzRzeJkwArdPm9RS-3">
          <mxGeometry relative="1" as="geometry" />
        </mxCell>
        <mxCell id="H_drZzRzeJkwArdPm9RS-1" value="&lt;font style=&quot;font-size: 13px;&quot;&gt;pentries view&lt;/font&gt;" style="whiteSpace=wrap;html=1;aspect=fixed;" vertex="1" parent="1">
          <mxGeometry x="960" y="20" width="80" height="80" as="geometry" />
        </mxCell>
        <mxCell id="H_drZzRzeJkwArdPm9RS-3" value="&quot;create view pentries as select entries.*, summary.inode as pinode from entries, summary where rectype=0&quot;" style="whiteSpace=wrap;html=1;" vertex="1" parent="1">
          <mxGeometry x="920" y="150" width="160" height="100" as="geometry" />
        </mxCell>
        <mxCell id="H_drZzRzeJkwArdPm9RS-5" value="Most used view" style="text;html=1;strokeColor=none;fillColor=none;align=center;verticalAlign=middle;whiteSpace=wrap;rounded=0;" vertex="1" parent="1">
          <mxGeometry x="880" y="20" width="60" height="30" as="geometry" />
        </mxCell>
        <mxCell id="H_drZzRzeJkwArdPm9RS-6" value="Code" style="text;html=1;strokeColor=none;fillColor=none;align=center;verticalAlign=middle;whiteSpace=wrap;rounded=0;" vertex="1" parent="1">
          <mxGeometry x="1010" y="110" width="60" height="30" as="geometry" />
        </mxCell>
      </root>
    </mxGraphModel>
  </diagram>
</mxfile>
